<!-- Slider ve kategori kartları için base64 placeholder görselleri -->
<svg xmlns="http://www.w3.org/2000/svg" width="1600" height="600" viewBox="0 0 1600 600">
<rect width="100%" height="100%" fill="#5D4037" />
<!-- Metin kaldırıldı -->
<g transform="translate(800, 300)">
    <path d="M-400,100 L400,100" stroke="white" stroke-width="6" />
    <path d="M-350,100 L-350,-40" stroke="white" stroke-width="6" />
    <path d="M-250,100 L-250,-60" stroke="white" stroke-width="6" />
    <path d="M-150,100 L-150,-80" stroke="white" stroke-width="6" />
    <path d="M-50,100 L-50,-100" stroke="white" stroke-width="6" />
    <path d="M50,100 L50,-100" stroke="white" stroke-width="6" />
    <path d="M150,100 L150,-80" stroke="white" stroke-width="6" />
    <path d="M250,100 L250,-60" stroke="white" stroke-width="6" />
    <path d="M350,100 L350,-40" stroke="white" stroke-width="6" />
    <circle cx="-200" cy="-40" r="30" fill="white" />
    <circle cx="200" cy="-40" r="30" fill="white" />
    <path d="M-100,-80 L100,-80" stroke="white" stroke-width="6" />
    <path d="M0,-80 L0,-20" stroke="white" stroke-width="6" />
    <path d="M-60,-20 L60,-20" stroke="white" stroke-width="6" />
</g>
</svg>
