<?xml version="1.0" encoding="UTF-8" standalone="no"?>
<svg xmlns="http://www.w3.org/2000/svg" viewBox="0 0 800 500" width="800" height="500">
  <defs>
    <radialGradient id="spotlight1" cx="0.2" cy="0" r="0.7">
      <stop offset="0%" stop-color="rgba(255,0,0,0.7)"/>
      <stop offset="100%" stop-color="rgba(255,0,0,0)"/>
    </radialGradient>
    <radialGradient id="spotlight2" cx="0.5" cy="0" r="0.7">
      <stop offset="0%" stop-color="rgba(0,255,255,0.7)"/>
      <stop offset="100%" stop-color="rgba(0,255,255,0)"/>
    </radialGradient>
    <radialGradient id="spotlight3" cx="0.8" cy="0" r="0.7">
      <stop offset="0%" stop-color="rgba(255,255,0,0.7)"/>
      <stop offset="100%" stop-color="rgba(255,255,0,0)"/>
    </radialGradient>
  </defs>

  <!-- Background -->
  <rect width="800" height="500" fill="#111111"/>
  
  <!-- Spotlights -->
  <path d="M0,0 L400,400 L800,0 Z" fill="url(#spotlight1)" opacity="0.5"/>
  <path d="M100,0 L400,450 L700,0 Z" fill="url(#spotlight2)" opacity="0.5"/>
  <path d="M200,0 L400,500 L600,0 Z" fill="url(#spotlight3)" opacity="0.5"/>
  
  <!-- Stage -->
  <rect x="100" y="300" width="600" height="50" fill="#333333"/>
  
  <!-- Musicians silhouettes -->
  <rect x="250" y="250" width="30" height="50" fill="#000000"/>
  <rect x="350" y="250" width="30" height="50" fill="#000000"/>
  <rect x="450" y="250" width="30" height="50" fill="#000000"/>
  <rect x="550" y="250" width="30" height="50" fill="#000000"/>
  
  <!-- Instruments suggestion -->
  <rect x="240" y="240" width="50" height="10" fill="#222222"/>
  <rect x="440" y="240" width="50" height="10" fill="#222222"/>
  
  <!-- Crowd -->
  <path d="M0,500 C100,450 250,470 400,460 C550,470 700,450 800,500 L800,500 L0,500 Z" fill="#000000"/>
  <path d="M50,500 C150,480 250,490 350,485 C450,490 550,480 650,500 L650,500 L50,500 Z" fill="#111111" opacity="0.8"/>
  
  <!-- Stage lights -->
  <circle cx="200" cy="50" r="10" fill="#ffffff" opacity="0.9"/>
  <circle cx="400" cy="50" r="10" fill="#ffffff" opacity="0.9"/>
  <circle cx="600" cy="50" r="10" fill="#ffffff" opacity="0.9"/>
  
  <!-- Text -->
  <text x="400" y="100" font-family="Arial, sans-serif" font-size="24" font-weight="bold" text-anchor="middle" fill="white" text-transform="uppercase">CONCERT</text>
</svg> 