<?xml version="1.0" encoding="UTF-8" standalone="no"?>
<svg xmlns="http://www.w3.org/2000/svg" viewBox="0 0 1200 600" width="1200" height="600">
  <rect width="1200" height="600" fill="#4caf50"/>
  
  <!-- Field -->
  <rect x="100" y="150" width="1000" height="350" stroke="#fff" stroke-width="8" fill="none"/>
  <circle cx="600" cy="325" r="100" stroke="#fff" stroke-width="8" fill="none"/>
  <line x1="600" y1="150" x2="600" y2="500" stroke="#fff" stroke-width="8"/>
  
  <!-- Goals -->
  <rect x="100" y="275" width="30" height="100" stroke="#fff" stroke-width="8" fill="none"/>
  <rect x="1070" y="275" width="30" height="100" stroke="#fff" stroke-width="8" fill="none"/>
  
  <!-- Soccer ball -->
  <g transform="translate(600, 325)">
    <circle r="50" fill="#fff"/>
    <path d="M0,-50 L25,-25 L12.5,25 L-12.5,25 L-25,-25 Z" fill="#000"/>
    <path d="M-50,0 L-25,25 L12.5,25 L25,-25 L0,-50 Z" transform="rotate(72)" fill="#000"/>
    <path d="M-50,0 L-25,25 L12.5,25 L25,-25 L0,-50 Z" transform="rotate(144)" fill="#000"/>
    <path d="M-50,0 L-25,25 L12.5,25 L25,-25 L0,-50 Z" transform="rotate(216)" fill="#000"/>
    <path d="M-50,0 L-25,25 L12.5,25 L25,-25 L0,-50 Z" transform="rotate(288)" fill="#000"/>
  </g>
  
  <!-- Text -->
  <rect x="350" y="500" width="500" height="80" fill="#fff" opacity="0.8"/>
  <text x="600" y="555" font-family="Arial" font-size="60" font-weight="bold" text-anchor="middle" fill="#000">SPOR</text>
</svg> 