<?xml version="1.0" encoding="UTF-8" standalone="no"?>
<svg xmlns="http://www.w3.org/2000/svg" viewBox="0 0 800 500" width="800" height="500">
  <defs>
    <linearGradient id="curtainGradient" x1="0" y1="0" x2="0" y2="1">
      <stop offset="0%" stop-color="#7f0000"/>
      <stop offset="100%" stop-color="#b71c1c"/>
    </linearGradient>
  </defs>
  
  <!-- Background -->
  <rect width="800" height="500" fill="#1a0f0d"/>
  
  <!-- Stage -->
  <rect x="150" y="100" width="500" height="250" fill="#4e342e"/>
  
  <!-- Stage floor highlight -->
  <rect x="150" y="300" width="500" height="50" fill="#3e2723"/>
  
  <!-- Left curtain -->
  <path d="M150,50 Q200,100 150,150 Q200,200 150,250 Q200,300 150,350" 
        stroke="url(#curtainGradient)" stroke-width="100" fill="none"/>
        
  <!-- Right curtain -->
  <path d="M650,50 Q600,100 650,150 Q600,200 650,250 Q600,300 650,350" 
        stroke="url(#curtainGradient)" stroke-width="100" fill="none"/>
        
  <!-- Top curtain -->
  <rect x="150" y="50" width="500" height="30" fill="#b71c1c"/>
  
  <!-- Seating rows -->
  <path d="M200,380 L600,380 L580,420 L220,420" fill="#4e342e"/>
  <path d="M220,430 L580,430 L560,470 L240,470" fill="#3e2723"/>
  
  <!-- Individual seats suggestion -->
  <g fill="#6d4c41">
    <rect x="240" y="390" width="10" height="10" rx="2"/>
    <rect x="260" y="390" width="10" height="10" rx="2"/>
    <rect x="280" y="390" width="10" height="10" rx="2"/>
    <rect x="300" y="390" width="10" height="10" rx="2"/>
    <rect x="320" y="390" width="10" height="10" rx="2"/>
    <rect x="340" y="390" width="10" height="10" rx="2"/>
    <rect x="360" y="390" width="10" height="10" rx="2"/>
    <rect x="380" y="390" width="10" height="10" rx="2"/>
    <rect x="400" y="390" width="10" height="10" rx="2"/>
    <rect x="420" y="390" width="10" height="10" rx="2"/>
    <rect x="440" y="390" width="10" height="10" rx="2"/>
    <rect x="460" y="390" width="10" height="10" rx="2"/>
    <rect x="480" y="390" width="10" height="10" rx="2"/>
    <rect x="500" y="390" width="10" height="10" rx="2"/>
    <rect x="520" y="390" width="10" height="10" rx="2"/>
    <rect x="540" y="390" width="10" height="10" rx="2"/>
  </g>
  
  <!-- Spotlight effect -->
  <ellipse cx="400" cy="220" rx="150" ry="100" fill="white" opacity="0.2"/>
  
  <!-- Actors suggestion -->
  <circle cx="350" cy="270" r="15" fill="#222222"/>
  <circle cx="450" cy="270" r="15" fill="#222222"/>
  
  <!-- Text -->
  <text x="400" y="100" font-family="Times New Roman, serif" font-size="32" font-weight="bold" text-anchor="middle" fill="gold" text-transform="uppercase">THEATER</text>
</svg> 