<?xml version="1.0" encoding="UTF-8" standalone="no"?>
<svg xmlns="http://www.w3.org/2000/svg" viewBox="0 0 800 500" width="800" height="500">
  <rect width="800" height="500" fill="#2d1b36"/>
  <rect x="100" y="50" width="600" height="50" fill="#ffb74d" opacity="0.8"/>
  <ellipse cx="400" cy="250" rx="300" ry="150" fill="#ff9800" opacity="0.5"/>
  
  <!-- Crowd Silhouettes -->
  <path d="M0,500 C100,450 250,470 400,460 C550,470 700,450 800,500 L800,500 L0,500 Z" fill="#000"/>
  <path d="M100,500 C200,480 300,490 400,485 C500,490 600,480 700,500 L700,500 L100,500 Z" fill="#111" opacity="0.7"/>

  <!-- Stage Lights -->
  <circle cx="200" cy="100" r="10" fill="#fff"/>
  <circle cx="300" cy="100" r="10" fill="#fff"/>
  <circle cx="400" cy="100" r="10" fill="#fff"/>
  <circle cx="500" cy="100" r="10" fill="#fff"/>
  <circle cx="600" cy="100" r="10" fill="#fff"/>
</svg> 