<?xml version="1.0" encoding="UTF-8" standalone="no"?>
<svg xmlns="http://www.w3.org/2000/svg" viewBox="0 0 800 500" width="800" height="500">
  <defs>
    <linearGradient id="stadiumGradient" x1="0" y1="0" x2="0" y2="1">
      <stop offset="0%" stop-color="#1B5E20"/>
      <stop offset="100%" stop-color="#2E7D32"/>
    </linearGradient>
    <radialGradient id="spotlightGradient" cx="0.5" cy="0.5" r="0.8">
      <stop offset="0%" stop-color="rgba(255,255,255,0.3)"/>
      <stop offset="100%" stop-color="rgba(255,255,255,0)"/>
    </radialGradient>
  </defs>
  
  <!-- Background - field -->
  <rect width="800" height="500" fill="url(#stadiumGradient)"/>
  
  <!-- Stadium stands top -->
  <rect x="0" y="0" width="800" height="80" fill="#444"/>
  <rect x="0" y="80" width="800" height="10" fill="#666"/>
  
  <!-- Stadium stands bottom -->
  <rect x="0" y="400" width="800" height="100" fill="#444"/>
  <rect x="0" y="390" width="800" height="10" fill="#666"/>
  
  <!-- Field markings -->
  <rect x="100" y="150" width="600" height="250" stroke="white" stroke-width="4" fill="none"/>
  
  <!-- Center circle -->
  <circle cx="400" cy="250" r="50" stroke="white" stroke-width="4" fill="none"/>
  <circle cx="400" cy="250" r="3" fill="white"/>
  
  <!-- Center line -->
  <line x1="400" y1="150" x2="400" y2="400" stroke="white" stroke-width="4"/>
  
  <!-- Penalty areas -->
  <rect x="100" y="175" width="100" height="150" stroke="white" stroke-width="4" fill="none"/>
  <rect x="600" y="175" width="100" height="150" stroke="white" stroke-width="4" fill="none"/>
  
  <!-- Goal areas -->
  <rect x="100" y="200" width="50" height="100" stroke="white" stroke-width="4" fill="none"/>
  <rect x="650" y="200" width="50" height="100" stroke="white" stroke-width="4" fill="none"/>
  
  <!-- Goals -->
  <rect x="90" y="225" width="10" height="50" stroke="white" stroke-width="2" fill="none"/>
  <rect x="700" y="225" width="10" height="50" stroke="white" stroke-width="2" fill="none"/>
  
  <!-- Corner arcs -->
  <path d="M100,150 A20,20 0 0,1 120,170" stroke="white" stroke-width="4" fill="none"/>
  <path d="M700,150 A20,20 0 0,0 680,170" stroke="white" stroke-width="4" fill="none"/>
  <path d="M100,400 A20,20 0 0,0 120,380" stroke="white" stroke-width="4" fill="none"/>
  <path d="M700,400 A20,20 0 0,1 680,380" stroke="white" stroke-width="4" fill="none"/>
  
  <!-- Penalty spots -->
  <circle cx="160" cy="250" r="3" fill="white"/>
  <circle cx="640" cy="250" r="3" fill="white"/>
  
  <!-- Players team 1 (red) -->
  <circle cx="300" cy="250" r="10" fill="red"/>
  <circle cx="220" cy="200" r="10" fill="red"/>
  <circle cx="220" cy="300" r="10" fill="red"/>
  <circle cx="150" cy="250" r="10" fill="red" stroke="white" stroke-width="1"/> <!-- goalkeeper -->
  
  <!-- Players team 2 (blue) -->
  <circle cx="500" cy="250" r="10" fill="blue"/>
  <circle cx="580" cy="200" r="10" fill="blue"/>
  <circle cx="580" cy="300" r="10" fill="blue"/>
  <circle cx="650" cy="250" r="10" fill="blue" stroke="white" stroke-width="1"/> <!-- goalkeeper -->
  
  <!-- Ball -->
  <circle cx="400" cy="250" r="6" fill="white" stroke="black" stroke-width="1"/>
  
  <!-- Spotlights effect -->
  <ellipse cx="200" cy="250" rx="100" ry="150" fill="url(#spotlightGradient)"/>
  <ellipse cx="600" cy="250" rx="100" ry="150" fill="url(#spotlightGradient)"/>
  
  <!-- Stadium spectators suggestion -->
  <g fill="rgba(0,0,0,0.5)">
    <rect x="5" y="10" width="790" height="5"/>
    <rect x="5" y="25" width="790" height="5"/>
    <rect x="5" y="40" width="790" height="5"/>
    <rect x="5" y="55" width="790" height="5"/>
    <rect x="5" y="70" width="790" height="5"/>
    
    <rect x="5" y="405" width="790" height="5"/>
    <rect x="5" y="420" width="790" height="5"/>
    <rect x="5" y="435" width="790" height="5"/>
    <rect x="5" y="450" width="790" height="5"/>
    <rect x="5" y="465" width="790" height="5"/>
    <rect x="5" y="480" width="790" height="5"/>
  </g>
</svg> 