<?xml version="1.0" encoding="UTF-8" standalone="no"?>
<svg xmlns="http://www.w3.org/2000/svg" viewBox="0 0 800 500" width="800" height="500">
  <defs>
    <radialGradient id="lantern1" cx="0.5" cy="0.5" r="0.5">
      <stop offset="0%" stop-color="rgba(255,180,0,0.9)"/>
      <stop offset="100%" stop-color="rgba(255,100,0,0.2)"/>
    </radialGradient>
    <radialGradient id="lantern2" cx="0.5" cy="0.5" r="0.5">
      <stop offset="0%" stop-color="rgba(255,100,255,0.9)"/>
      <stop offset="100%" stop-color="rgba(180,0,180,0.2)"/>
    </radialGradient>
    <radialGradient id="lantern3" cx="0.5" cy="0.5" r="0.5">
      <stop offset="0%" stop-color="rgba(255,255,0,0.9)"/>
      <stop offset="100%" stop-color="rgba(180,180,0,0.2)"/>
    </radialGradient>
    <radialGradient id="firework1" cx="0.5" cy="0.5" r="0.5">
      <stop offset="0%" stop-color="rgba(255,255,255,0.9)"/>
      <stop offset="20%" stop-color="rgba(255,0,0,0.7)"/>
      <stop offset="100%" stop-color="rgba(100,0,0,0)"/>
    </radialGradient>
    <radialGradient id="firework2" cx="0.5" cy="0.5" r="0.5">
      <stop offset="0%" stop-color="rgba(255,255,255,0.9)"/>
      <stop offset="20%" stop-color="rgba(0,100,255,0.7)"/>
      <stop offset="100%" stop-color="rgba(0,0,100,0)"/>
    </radialGradient>
    <radialGradient id="firework3" cx="0.5" cy="0.5" r="0.5">
      <stop offset="0%" stop-color="rgba(255,255,255,0.9)"/>
      <stop offset="20%" stop-color="rgba(0,255,0,0.7)"/>
      <stop offset="100%" stop-color="rgba(0,100,0,0)"/>
    </radialGradient>
  </defs>
  
  <!-- Night sky background -->
  <rect width="800" height="500" fill="#051a33"/>
  
  <!-- Stars -->
  <g fill="white">
    <circle cx="50" cy="30" r="1"/>
    <circle cx="120" cy="60" r="1.5"/>
    <circle cx="200" cy="25" r="1"/>
    <circle cx="280" cy="70" r="1"/>
    <circle cx="350" cy="40" r="1.5"/>
    <circle cx="420" cy="20" r="1"/>
    <circle cx="490" cy="50" r="1"/>
    <circle cx="560" cy="30" r="1.5"/>
    <circle cx="630" cy="65" r="1"/>
    <circle cx="700" cy="35" r="1"/>
    <circle cx="770" cy="55" r="1.5"/>
    <circle cx="80" cy="90" r="1"/>
    <circle cx="150" cy="120" r="1"/>
    <circle cx="230" cy="85" r="1.5"/>
    <circle cx="300" cy="110" r="1"/>
    <circle cx="380" cy="75" r="1"/>
    <circle cx="450" cy="105" r="1.5"/>
    <circle cx="520" cy="95" r="1"/>
    <circle cx="590" cy="125" r="1"/>
    <circle cx="670" cy="85" r="1.5"/>
    <circle cx="740" cy="115" r="1"/>
  </g>
  
  <!-- Fireworks -->
  <circle cx="200" cy="120" r="40" fill="url(#firework1)" opacity="0.7"/>
  <circle cx="600" cy="100" r="50" fill="url(#firework2)" opacity="0.7"/>
  <circle cx="400" cy="180" r="30" fill="url(#firework3)" opacity="0.7"/>
  
  <!-- Sky lanterns -->
  <g>
    <circle cx="100" cy="150" r="20" fill="url(#lantern1)"/>
    <circle cx="300" cy="120" r="15" fill="url(#lantern2)"/>
    <circle cx="500" cy="100" r="25" fill="url(#lantern3)"/>
    <circle cx="700" cy="140" r="18" fill="url(#lantern1)"/>
    <circle cx="600" cy="200" r="16" fill="url(#lantern2)"/>
    <circle cx="200" cy="180" r="22" fill="url(#lantern3)"/>
  </g>
  
  <!-- Ground/field with people -->
  <rect x="0" y="350" width="800" height="150" fill="#1b1b1b"/>
  
  <!-- Festival stage -->
  <rect x="200" y="300" width="400" height="80" fill="#333" stroke="#444" stroke-width="2"/>
  <rect x="220" y="320" width="360" height="40" fill="#444"/>
  
  <!-- Stage equipment suggestion -->
  <rect x="280" y="260" width="10" height="40" fill="#555"/>
  <rect x="520" y="260" width="10" height="40" fill="#555"/>
  <rect x="270" y="260" width="30" height="10" fill="#666"/>
  <rect x="510" y="260" width="30" height="10" fill="#666"/>
  
  <!-- Crowd silhouettes -->
  <path d="M0,500 C50,480 100,475 150,485 C200,475 250,480 300,490 C350,480 400,475 450,485 C500,475 550,480 600,490 C650,480 700,475 750,485 C800,480 800,500 800,500 L0,500 Z" fill="#000"/>
</svg> 