<?xml version="1.0" encoding="UTF-8" standalone="no"?>
<svg xmlns="http://www.w3.org/2000/svg" viewBox="0 0 800 500" width="800" height="500">
  <rect width="800" height="500" fill="#4caf50"/>
  
  <!-- Field lines -->
  <rect x="50" y="100" width="700" height="300" stroke="#fff" stroke-width="4" fill="none"/>
  <circle cx="400" cy="250" r="80" stroke="#fff" stroke-width="4" fill="none"/>
  <line x1="400" y1="100" x2="400" y2="400" stroke="#fff" stroke-width="4"/>

  <!-- Goals -->
  <rect x="50" y="200" width="20" height="100" stroke="#fff" stroke-width="4" fill="none"/>
  <rect x="730" y="200" width="20" height="100" stroke="#fff" stroke-width="4" fill="none"/>

  <!-- Soccer ball -->
  <g transform="translate(400, 250)">
    <circle r="40" fill="#fff"/>
    <path d="M0,-40 L20,-20 L10,20 L-10,20 L-20,-20 Z" fill="#000"/>
    <path d="M-40,0 L-20,20 L10,20 L20,-20 L0,-40 Z" transform="rotate(72)" fill="#000"/>
    <path d="M-40,0 L-20,20 L10,20 L20,-20 L0,-40 Z" transform="rotate(144)" fill="#000"/>
    <path d="M-40,0 L-20,20 L10,20 L20,-20 L0,-40 Z" transform="rotate(216)" fill="#000"/>
    <path d="M-40,0 L-20,20 L10,20 L20,-20 L0,-40 Z" transform="rotate(288)" fill="#000"/>
  </g>
</svg> 