<?xml version="1.0" encoding="UTF-8" standalone="no"?>
<svg xmlns="http://www.w3.org/2000/svg" width="800" height="400" viewBox="0 0 800 400">
  <rect width="800" height="400" fill="#5D4037" />
  <g transform="translate(400, 150)">
    <path d="M-200,50 L200,50" stroke="white" stroke-width="3" />
    <path d="M-175,50 L-175,-20" stroke="white" stroke-width="3" />
    <path d="M-125,50 L-125,-30" stroke="white" stroke-width="3" />
    <path d="M-75,50 L-75,-40" stroke="white" stroke-width="3" />
    <path d="M-25,50 L-25,-50" stroke="white" stroke-width="3" />
    <path d="M25,50 L25,-50" stroke="white" stroke-width="3" />
    <path d="M75,50 L75,-40" stroke="white" stroke-width="3" />
    <path d="M125,50 L125,-30" stroke="white" stroke-width="3" />
    <path d="M175,50 L175,-20" stroke="white" stroke-width="3" />
    <circle cx="-100" cy="-20" r="15" fill="white" />
    <circle cx="100" cy="-20" r="15" fill="white" />
    <path d="M-50,-40 L50,-40" stroke="white" stroke-width="3" />
    <path d="M0,-40 L0,-10" stroke="white" stroke-width="3" />
    <path d="M-30,-10 L30,-10" stroke="white" stroke-width="3" />
  </g>
</svg> 