<svg xmlns="http://www.w3.org/2000/svg" width="40" height="40" fill="#0d6efd" viewBox="0 0 16 16">
  <path d="M13.5 3a.5.5 0 0 1 .5.5V11H2V3.5a.5.5 0 0 1 .5-.5zm-11-1A1.5 1.5 0 0 0 1 3.5v10A1.5 1.5 0 0 0 2.5 15h11a1.5 1.5 0 0 0 1.5-1.5v-10A1.5 1.5 0 0 0 13.5 2zM6.625 6.94c0 1.439-.879 2.377-2.166 2.377C3.066 9.316 2.2 8.528 2.2 7.183c0-1.459.935-2.442 2.333-2.442 1.32 0 2.092.9 2.092 2.199zm-2.066-1.036c-.707 0-1.155.62-1.155 1.281 0 .7.428 1.337 1.136 1.337.739 0 1.147-.639 1.147-1.311 0-.682-.427-1.307-1.128-1.307M14 7h-1.25v3h-.952v-3H8.75V6h3.048V3h.952v3H14zm-8 2h-1v3H4V9H3V8h3z"/>
</svg> 